<?xml version="1.0" encoding="UTF-8"?><svg id="Layer_2" xmlns="http://www.w3.org/2000/svg" viewBox="0 0 1845.61 587.23"><defs><style>.cls-1{letter-spacing:0em;}.cls-2{font-family:CircularStd-Bold, 'Circular Std';font-size:490px;font-weight:700;}.cls-3{fill:#777;}.cls-4{letter-spacing:0em;}</style></defs><g id="Layer_1-2"><text class="cls-2" transform="translate(512.29 463.75)"><tspan class="cls-1" x="0" y="0">U</tspan><tspan class="cls-4" x="338.1" y="0">s</tspan><tspan x="562.03" y="0">ual</tspan></text><g><g><path d="M78.13,351.04c.57,.32,1.13,.62,1.71,.91h0c-.58-.3-1.14-.6-1.71-.91Z"/><path d="M309.9,143.84v196.46c0,3.65-.13,7.21-.35,10.72-5.39,80.97-72.05,124.11-154.89,124.11S0,428.18,0,340.3V143.84c0-19.24,17.56-34.85,39.23-34.85,7.73,0,14.95,1.99,21.04,5.43,.01,0,.01,.01,.02,.01,2.42,1.36,4.65,2.95,6.68,4.76,7.09,6.3,11.49,15.02,11.49,24.64v191.42c0,5.92,.47,11.47,1.38,16.69-.58-.28-1.14-.59-1.71-.9,.57,.32,1.13,.62,1.71,.91h.01c6.35,36.12,34.06,55.03,74.82,55.03,47.76,0,76.77-24.75,76.77-71.72V143.84c0-19.24,17.57-34.85,39.23-34.85,7.04,0,13.62,1.64,19.32,4.52,3.1,1.54,5.93,3.46,8.43,5.68,7.09,6.32,11.49,15.03,11.49,24.65Z"/><path d="M79.84,351.93h0c-.58-.27-1.14-.58-1.71-.9,.57,.31,1.13,.61,1.71,.9Z"/></g><g><path class="cls-3" d="M345.45,124.1c-.57-.32-1.13-.62-1.71-.91h0c.58,.3,1.14,.6,1.71,.91Z"/><path class="cls-3" d="M113.67,331.3V134.84c0-3.65,.13-7.21,.35-10.72C119.41,43.14,186.07,0,268.92,0c85.87,0,154.66,46.96,154.66,134.84v196.46c0,19.24-17.56,34.85-39.23,34.85-7.73,0-14.95-1.99-21.04-5.43-.01,0-.01-.01-.02-.01-2.42-1.36-4.65-2.95-6.68-4.76-7.09-6.3-11.49-15.02-11.49-24.64V139.89c0-5.92-.47-11.47-1.38-16.69,.58,.28,1.14,.59,1.71,.9-.57-.32-1.13-.62-1.71-.91h-.01c-6.35-36.12-34.06-55.03-74.82-55.03-47.76,0-76.77,24.75-76.77,71.72v191.41c0,19.24-17.57,34.85-39.23,34.85-7.04,0-13.62-1.64-19.32-4.52-3.1-1.54-5.93-3.46-8.43-5.68-7.09-6.32-11.49-15.03-11.49-24.65Z"/><path class="cls-3" d="M343.74,123.2h0c.58,.27,1.14,.58,1.71,.9-.57-.31-1.13-.61-1.71-.9Z"/></g></g></g></svg>